HIERARCHY
ROOT joint_Root
{
	OFFSET 0.0 0.0 0.0
	CHANNELS 6 Xposition Yposition Zposition Zrotation Xrotation Yrotation 
	JOINT Hips
	{
		OFFSET 4.5925 91.4895 -427.239
		CHANNELS 6 Xposition Yposition Zposition Zrotation Xrotation Yrotation 
		JOINT Spine
		{
			OFFSET 15.7357 0.0 0.0
			CHANNELS 6 Xposition Yposition Zposition Zrotation Xrotation Yrotation 
			JOINT Chest
			{
				OFFSET 8.98455 -0.406207 0.0
				CHANNELS 6 Xposition Yposition Zposition Zrotation Xrotation Yrotation 
				JOINT Neck
				{
					OFFSET 16.3773 0.0 0.0
					CHANNELS 6 Xposition Yposition Zposition Zrotation Xrotation Yrotation 
					JOINT Head
					{
						OFFSET 6.45672 0.0 0.0
						CHANNELS 6 Xposition Yposition Zposition Zrotation Xrotation Yrotation 
						End Site
						{
							OFFSET 0.0 0.0 0.0
						}
					}
				}
				JOINT Shoulder_L
				{
					OFFSET 12.9942 -0.242716 4.98039
					CHANNELS 6 Xposition Yposition Zposition Zrotation Xrotation Yrotation 
					JOINT UpperArm_L
					{
						OFFSET 5.34809 0.0 0.0
						CHANNELS 6 Xposition Yposition Zposition Zrotation Xrotation Yrotation 
						JOINT LowerArm_L
						{
							OFFSET 24.3286 1.87007e-05 0.0
							CHANNELS 6 Xposition Yposition Zposition Zrotation Xrotation Yrotation 
							JOINT Hand_L
							{
								OFFSET 22.2916 0.0 0.0
								CHANNELS 6 Xposition Yposition Zposition Zrotation Xrotation Yrotation 
								End Site
								{
									OFFSET 0.0 0.0 0.0
								}
							}
						}
					}
				}
				JOINT Shoulder_R
				{
					OFFSET 12.9945 -0.242716 -4.98039
					CHANNELS 6 Xposition Yposition Zposition Zrotation Xrotation Yrotation 
					JOINT UpperArm_R
					{
						OFFSET -5.34813 0.0 0.0
						CHANNELS 6 Xposition Yposition Zposition Zrotation Xrotation Yrotation 
						JOINT LowerArm_R
						{
							OFFSET -24.3289 0.000322201 0.0
							CHANNELS 6 Xposition Yposition Zposition Zrotation Xrotation Yrotation 
							JOINT Hand_R
							{
								OFFSET -22.2915 -0.000108084 0.0
								CHANNELS 6 Xposition Yposition Zposition Zrotation Xrotation Yrotation 
								End Site
								{
									OFFSET 0.0 0.0 0.0
								}
							}
						}
					}
				}
			}
		}
		JOINT UpperLeg_L
		{
			OFFSET -2.19248 -6.46944 0.0
			CHANNELS 6 Xposition Yposition Zposition Zrotation Xrotation Yrotation 
			JOINT LowerLeg_L
			{
				OFFSET 39.0811 0.0 -1.23785e-05
				CHANNELS 6 Xposition Yposition Zposition Zrotation Xrotation Yrotation 
				JOINT Foot_L
				{
					OFFSET 40.9854 0.0 -1.26872e-05
					CHANNELS 6 Xposition Yposition Zposition Zrotation Xrotation Yrotation 
					JOINT Toes_L
					{
						OFFSET 11.7543 0.0 0.0
						CHANNELS 6 Xposition Yposition Zposition Zrotation Xrotation Yrotation 
						End Site
						{
							OFFSET 0.0 0.0 0.0
						}
					}
				}
			}
		}
		JOINT UpperLeg_R
		{
			OFFSET -2.19251 6.46944 0.0
			CHANNELS 6 Xposition Yposition Zposition Zrotation Xrotation Yrotation 
			JOINT LowerLeg_R
			{
				OFFSET -39.0811 -0.00228153 -0.0401928
				CHANNELS 6 Xposition Yposition Zposition Zrotation Xrotation Yrotation 
				JOINT Foot_R
				{
					OFFSET -40.9854 0.0 0.0
					CHANNELS 6 Xposition Yposition Zposition Zrotation Xrotation Yrotation 
					JOINT Toes_R
					{
						OFFSET -11.7543 0.0 0.0
						CHANNELS 6 Xposition Yposition Zposition Zrotation Xrotation Yrotation 
						End Site
						{
							OFFSET 0.0 0.0 0.0
						}
					}
				}
			}
		}
	}
}
MOTION
Frames:	6
Frame Time:	0.0333333
0.000000 0.000000 0.000000 0.000000 0.000000 -0.000000 -90.160500 91.074100 185.992000 -81.422900 80.238400 170.098000 15.735700 0.000005 -0.000001 64.971000 84.558500 -63.763200 8.984550 -0.406207 -0.000000 2.152160 -4.660330 2.501950 16.377300 -0.000001 -0.000001 -2.557640 -7.137960 0.887604 6.456720 -0.000001 -0.000000 -8.640000 -4.983530 -1.888960 12.994200 -0.242716 4.980390 -90.520600 2.223280 -76.817200 5.348090 -0.000007 -0.000001 -53.382400 28.109500 -40.573700 24.328600 0.000019 0.000005 12.842400 11.673600 -48.406600 22.291600 -0.000001 0.000005 13.998300 5.283940 0.517425 12.994500 -0.242716 -4.980390 87.942400 8.922390 -76.957600 -5.348130 -0.000001 -0.000004 -64.031600 15.767600 7.232950 -24.328900 0.000322 -0.000009 0.953138 7.806580 -6.991650 -22.291500 -0.000108 -0.000004 14.258400 5.224070 2.107840 -2.192480 -6.469440 -0.000000 -178.117000 -2.624750 0.253780 39.081100 -0.000007 -0.000012 0.016594 -0.031402 27.852000 40.985400 -0.000006 -0.000013 7.475260 8.927010 -69.178800 11.754300 -0.000000 0.000003 -0.015379 -0.140204 -22.297700 -2.192510 6.469440 -0.000001 -178.352000 14.736200 152.849000 -39.081100 -0.002282 -0.040193 0.060712 -0.051725 48.005300 -40.985400 0.000008 0.000006 3.819220 1.202620 -60.480000 -11.754300 -0.000006 -0.000006 -0.019736 -0.165821 -23.347400
0.000000 0.000000 0.000000 0.000000 0.000000 -0.000000 -87.057400 90.701200 186.150000 -83.960700 78.779800 172.056000 15.735700 0.000005 -0.000001 61.633000 84.501800 -60.464800 8.984550 -0.406207 -0.000000 1.973150 -5.280300 2.426460 16.377300 -0.000001 -0.000001 -2.844390 -7.236750 1.241190 6.456720 -0.000001 -0.000000 -9.006040 -4.824380 -0.588766 12.994200 -0.242716 4.980390 -90.456600 1.971240 -76.955600 5.348090 -0.000007 -0.000001 -51.492300 28.187200 -43.310500 24.328600 0.000019 0.000005 15.167100 11.301000 -54.134900 22.291600 -0.000001 0.000005 14.223700 5.288900 0.381420 12.994500 -0.242716 -4.980390 88.058100 8.289380 -76.766100 -5.348130 -0.000001 -0.000004 -64.494200 14.749400 10.707900 -24.328900 0.000322 -0.000009 0.877935 6.362280 -7.882690 -22.291500 -0.000108 -0.000004 13.850400 5.244380 1.580340 -2.192480 -6.469440 -0.000000 -177.482000 -2.276550 1.492880 39.081100 -0.000007 -0.000012 0.013960 -0.026356 27.908900 40.985400 -0.000006 -0.000013 7.237170 10.150600 -69.061100 11.754300 -0.000000 0.000003 -0.024838 -0.192762 -24.462800 -2.192510 6.469440 -0.000001 -177.185000 15.785600 151.879000 -39.081100 -0.002282 -0.040193 0.040813 -0.044982 39.842500 -40.985400 0.000008 0.000006 3.416470 1.319970 -60.818900 -11.754300 -0.000006 -0.000006 -0.020643 -0.170822 -23.553400
0.000000 0.000000 0.000000 0.000000 0.000000 -0.000000 -83.500500 89.961300 186.267000 -86.055900 77.913500 174.007000 15.735700 0.000005 -0.000001 59.522200 84.387800 -58.427000 8.984550 -0.406207 -0.000000 1.973160 -5.744790 2.288840 16.377300 -0.000001 -0.000001 -2.837900 -7.178350 1.427100 6.456720 -0.000001 -0.000000 -9.103420 -4.696190 0.498618 12.994200 -0.242716 4.980390 -90.426900 1.849340 -76.999100 5.348090 -0.000007 -0.000001 -50.542300 27.984100 -44.259600 24.328600 0.000019 0.000005 16.552200 10.104300 -59.447100 22.291600 -0.000001 0.000005 14.499800 5.295840 0.188150 12.994500 -0.242716 -4.980390 88.157600 7.800160 -76.666300 -5.348130 -0.000001 -0.000004 -64.963200 14.578100 12.965800 -24.328900 0.000322 -0.000009 0.863289 6.267650 -7.868030 -22.291500 -0.000108 -0.000004 13.313600 5.249270 1.452130 -2.192480 -6.469440 -0.000000 -176.885000 -2.098840 3.143500 39.081100 -0.000007 -0.000012 0.012289 -0.022339 28.815300 40.985400 -0.000006 -0.000013 7.051950 11.160500 -69.391400 11.754300 -0.000000 0.000003 -0.040807 -0.263324 -27.396100 -2.192510 6.469440 -0.000001 -175.557000 17.324800 151.145000 -39.081100 -0.002282 -0.040193 0.031265 -0.040464 34.657300 -40.985400 0.000008 0.000006 4.387390 -0.370981 -61.849000 -11.754300 -0.000006 -0.000006 -0.020951 -0.172502 -23.622700
0.000000 0.000000 0.000000 0.000000 0.000000 -0.000000 -79.488600 89.045200 186.465000 -84.413000 77.752000 172.210000 15.735700 0.000005 -0.000001 58.478900 84.425800 -57.189800 8.984550 -0.406207 -0.000000 1.814760 -5.891990 2.671110 16.377300 -0.000001 -0.000001 -2.347090 -7.016820 1.542060 6.456720 -0.000001 -0.000000 -9.312090 -4.445810 0.974318 12.994200 -0.242716 4.980390 -90.561800 2.367660 -76.647500 5.348090 -0.000007 -0.000001 -49.924000 27.981600 -43.781200 24.328600 0.000019 0.000005 16.391900 8.345140 -63.740500 22.291600 -0.000001 0.000005 14.025800 5.321500 -0.540349 12.994500 -0.242716 -4.980390 88.078400 8.090510 -76.591600 -5.348130 -0.000001 -0.000004 -64.606500 15.076000 13.929000 -24.328900 0.000322 -0.000009 0.826674 6.931800 -6.826890 -22.291500 -0.000108 -0.000004 12.894200 5.242450 1.631670 -2.192480 -6.469440 -0.000000 -175.434000 -2.422390 4.574900 39.081100 -0.000007 -0.000012 0.009046 -0.015289 30.609500 40.985400 -0.000006 -0.000013 6.564010 12.146200 -69.471300 11.754300 -0.000000 0.000003 -0.068852 -0.359538 -31.459900 -2.192510 6.469440 -0.000001 -173.484000 17.355200 148.911000 -39.081100 -0.002282 -0.040193 0.048780 -0.060872 36.773100 -40.985400 0.000008 0.000006 9.709080 1.773180 -59.272700 -11.754300 -0.000006 -0.000006 -0.015159 -0.138817 -22.237000
0.000000 0.000000 0.000000 0.000000 0.000000 -0.000000 -74.638900 87.777500 186.503000 -86.975100 77.877900 175.301000 15.735700 0.000005 -0.000001 56.630500 84.465600 -55.451000 8.984550 -0.406207 -0.000000 1.552020 -6.149020 2.441920 16.377300 -0.000001 -0.000001 -1.575390 -6.813880 1.425440 6.456720 -0.000001 -0.000000 -8.433770 -4.239200 1.044070 12.994200 -0.242716 4.980390 -90.644400 2.621050 -76.183100 5.348090 -0.000007 -0.000001 -50.543300 28.722200 -41.235400 24.328600 0.000019 0.000005 15.665300 6.890770 -66.838100 22.291600 -0.000001 0.000005 12.892600 5.347150 -1.293900 12.994500 -0.242716 -4.980390 87.889500 8.642390 -76.220900 -5.348130 -0.000001 -0.000004 -63.899700 15.803300 14.096900 -24.328900 0.000322 -0.000009 0.705646 8.027760 -5.048560 -22.291500 -0.000108 -0.000004 12.758500 5.226460 2.046690 -2.192480 -6.469440 -0.000000 -174.886000 -2.628330 6.475200 39.081100 -0.000007 -0.000012 0.010269 -0.015364 33.755800 40.985400 -0.000006 -0.000013 6.035980 13.014500 -68.159700 11.754300 -0.000000 0.000003 -0.130779 -0.515293 -38.259300 -2.192510 6.469440 -0.000001 -175.205000 12.513600 149.302000 -39.081100 -0.002282 -0.040193 0.073469 -0.070769 44.770500 -40.985400 0.000008 0.000006 9.308280 -2.598970 -65.643400 -11.754300 -0.000006 -0.000006 -0.008700 -0.093650 -20.387300
0.000000 0.000000 0.000000 0.000000 0.000000 -0.000000 -69.567100 86.653100 186.568000 -86.315000 77.860000 175.923000 15.735700 0.000005 -0.000001 55.259100 84.216400 -53.940800 8.984550 -0.406207 -0.000000 1.829810 -6.656190 2.742790 16.377300 -0.000001 -0.000001 -0.824778 -6.525910 1.341750 6.456720 -0.000001 -0.000000 -7.764230 -3.936940 0.873196 12.994200 -0.242716 4.980390 -90.833900 3.249530 -75.599500 5.348090 -0.000007 -0.000001 -51.709600 29.807500 -37.109700 24.328600 0.000019 0.000005 15.361100 6.170950 -68.629700 22.291600 -0.000001 0.000005 12.053800 5.362320 -1.750770 12.994500 -0.242716 -4.980390 87.521800 9.737010 -75.646400 -5.348130 -0.000001 -0.000004 -62.520700 16.516700 12.729700 -24.328900 0.000322 -0.000009 0.517894 9.316530 -3.203190 -22.291500 -0.000108 -0.000004 12.863600 5.193020 2.893170 -2.192480 -6.469440 -0.000000 -173.225000 -3.479050 6.684340 39.081100 -0.000007 -0.000012 0.025277 -0.029841 40.263500 40.985400 -0.000006 -0.000013 5.169200 14.567700 -63.221600 11.754300 -0.000000 0.000003 -0.232506 -0.696565 -46.694700 -2.192510 6.469440 -0.000001 -175.415000 10.468900 151.897000 -39.081100 -0.002282 -0.040193 0.101583 -0.083164 49.778100 -40.985400 0.000008 0.000006 8.737590 -4.931860 -71.573000 -11.754300 -0.000006 -0.000006 -0.249975 -0.319034 -17.789000
